<svg xmlns="http://www.w3.org/2000/svg" width="41.251" height="74.402" viewBox="0 0 41.251 74.402">
  <g id="Group_64" data-name="Group 64" transform="translate(-5627 -2062.056)">
    <g id="Group_63" data-name="Group 63">
      <g id="Group_62" data-name="Group 62">
        <g id="Group_61" data-name="Group 61">
          <g id="Group_60" data-name="Group 60">
            <g id="Group_59" data-name="Group 59" transform="translate(0)">
              <path id="Path_16" data-name="Path 16" d="M38.191,56.477a7.109,7.109,0,0,0-1.428-.924,6.126,6.126,0,0,0-7.7,1.653c-.155.194-.3.4-.45.6-1.777,2.375-3.353,4.889-5.06,7.319a8.75,8.75,0,0,1-3.772,3.3.029.029,0,0,1-.023.008c-2.74.869-5.464.357-7.171-1.746C8.894,62.134,10.539,54.575,15.956,46.9,21.032,40.008,28.5,29.437,27.807,19.317,27.722,8.591,16.2.256,15.84,0a10.731,10.731,0,0,1,.652,6.387c5.293,4.765,14.094,8.467,1.948,28.568C5.789,55.491,6.6,62.491,9.546,69.492c1.133,2.685,3.8,4.315,6.876,4.773.078.016.155.023.233.031a.058.058,0,0,0,.039.008,12.348,12.348,0,0,0,10.268-3.438,31.712,31.712,0,0,0,5.083,1.684c4.928,1.048,6.535.116,8.708-4.3a10.239,10.239,0,0,0-2.561-11.773M35.785,68.134A11.1,11.1,0,0,1,29.577,66.6a13.324,13.324,0,0,1-2.328-1.762c1.3-1.63,2.538-3.252,3.873-4.781a1.838,1.838,0,0,1,1.374-.388,3.439,3.439,0,0,1,.4.047c2.887.419,4.726,2.6,5.1,5.96.264,2.313.171,2.383-2.2,2.46" transform="translate(5623.279 2062.056)" fill="#1b2855" fill-rule="evenodd"/>
              <path id="Path_17" data-name="Path 17" d="M38.675,50.272c-3.1,3.609-10.432,3.1-10.432,3.1l-.418.016a11.085,11.085,0,0,1-2.559,7.4,8.509,8.509,0,0,1-2.458,2.425,22.816,22.816,0,0,1-5.455,3.117c-.883.368-1.667.66-2.362.884a9.425,9.425,0,0,1-5.743.387C3.4,65.994.59,61.119.107,55.626c-.778-8.862,2.692-15.9,9.878-21.033.036-.026,2.9-1.839,4.262-2.672v.014q.815-.5,1.64-.991C21.511,27.575,27.34,24.328,31.257,18.5c-.373,2.369-1.676,4.13-2.963,5.892a32.855,32.855,0,0,1-10.116,8.629A128.519,128.519,0,0,0,7.005,41.659,13.1,13.1,0,0,0,3.362,53.575c.675,3.968,3.515,6.236,7.231,7.462.541.178,1.123.3,1.64.517a11.285,11.285,0,0,0,11.453-2.5,22.1,22.1,0,0,0,1.588-2.9A.952.952,0,0,0,25.327,56c.373-2.617-1.579-5.125-2.47-6.115l-1.1-.906,1.635-5.471s.026.038.076.1.151.2.273.357c1.551,1.961,7.9,9.052,11.592-.988l.238-.023c.02,1.6.346,8.832,4.792-.972l.846-.227a12.2,12.2,0,0,1-2.536,8.515" transform="translate(5627 2057.914)" fill="#fcc900"/>
              <path id="Path_18" data-name="Path 18" d="M26.652,62.381c-.1-.121-.168-.217-.213-.279l.025-.084Z" transform="translate(5621.08 2048.17)" fill="#fcc900"/>
            </g>
          </g>
        </g>
      </g>
    </g>
  </g>
</svg>
